<?xml version="1.0" encoding="UTF-8" standalone="no"?><svg xmlns="http://www.w3.org/2000/svg" xmlns:xlink="http://www.w3.org/1999/xlink" contentScriptType="application/ecmascript" contentStyleType="text/css" height="338px" preserveAspectRatio="none" style="width:330px;height:338px;background:#FFFFFF;" version="1.1" viewBox="0 0 330 338" width="330px" zoomAndPan="magnify"><defs><filter height="300%" id="f1f28519p9ndzz" width="300%" x="-1" y="-1"><feGaussianBlur result="blurOut" stdDeviation="2.0"/><feColorMatrix in="blurOut" result="blurOut2" type="matrix" values="0 0 0 0 0 0 0 0 0 0 0 0 0 0 0 0 0 0 .4 0"/><feOffset dx="4.0" dy="4.0" in="blurOut2" result="blurOut3"/><feBlend in="SourceGraphic" in2="blurOut3" mode="normal"/></filter></defs><g><line style="stroke:#A80036;stroke-width:1.0;stroke-dasharray:5.0,5.0;" x1="23" x2="23" y1="88.2969" y2="253.9609"/><line style="stroke:#A80036;stroke-width:1.0;stroke-dasharray:5.0,5.0;" x1="182" x2="182" y1="88.2969" y2="253.9609"/><line style="stroke:#A80036;stroke-width:1.0;stroke-dasharray:5.0,5.0;" x1="278" x2="278" y1="88.2969" y2="253.9609"/><text fill="#000000" font-family="sans-serif" font-size="14" lengthAdjust="spacing" textLength="31" x="5" y="84.9951">User</text><ellipse cx="23.5" cy="15" fill="#FEFECE" filter="url(#f1f28519p9ndzz)" rx="8" ry="8" style="stroke:#A80036;stroke-width:2.0;"/><path d="M23.5,23 L23.5,50 M10.5,31 L36.5,31 M23.5,50 L10.5,65 M23.5,50 L36.5,65 " fill="none" filter="url(#f1f28519p9ndzz)" style="stroke:#A80036;stroke-width:2.0;"/><text fill="#000000" font-family="sans-serif" font-size="14" lengthAdjust="spacing" textLength="31" x="5" y="265.9561">User</text><ellipse cx="23.5" cy="279.2578" fill="#FEFECE" filter="url(#f1f28519p9ndzz)" rx="8" ry="8" style="stroke:#A80036;stroke-width:2.0;"/><path d="M23.5,287.2578 L23.5,314.2578 M10.5,295.2578 L36.5,295.2578 M23.5,314.2578 L10.5,329.2578 M23.5,314.2578 L36.5,329.2578 " fill="none" filter="url(#f1f28519p9ndzz)" style="stroke:#A80036;stroke-width:2.0;"/><rect fill="#FEFECE" filter="url(#f1f28519p9ndzz)" height="30.2969" style="stroke:#A80036;stroke-width:1.5;" width="85" x="138" y="53"/><text fill="#000000" font-family="sans-serif" font-size="14" lengthAdjust="spacing" textLength="71" x="145" y="72.9951">ColdFront</text><rect fill="#FEFECE" filter="url(#f1f28519p9ndzz)" height="30.2969" style="stroke:#A80036;stroke-width:1.5;" width="85" x="138" y="252.9609"/><text fill="#000000" font-family="sans-serif" font-size="14" lengthAdjust="spacing" textLength="71" x="145" y="272.9561">ColdFront</text><rect fill="#FEFECE" filter="url(#f1f28519p9ndzz)" height="30.2969" style="stroke:#A80036;stroke-width:1.5;" width="79" x="237" y="53"/><text fill="#000000" font-family="sans-serif" font-size="14" lengthAdjust="spacing" textLength="65" x="244" y="72.9951">Keycloak</text><rect fill="#FEFECE" filter="url(#f1f28519p9ndzz)" height="30.2969" style="stroke:#A80036;stroke-width:1.5;" width="79" x="237" y="252.9609"/><text fill="#000000" font-family="sans-serif" font-size="14" lengthAdjust="spacing" textLength="65" x="244" y="272.9561">Keycloak</text><polygon fill="#A80036" points="170.5,115.4297,180.5,119.4297,170.5,123.4297,174.5,119.4297" style="stroke:#A80036;stroke-width:1.0;"/><line style="stroke:#A80036;stroke-width:1.0;" x1="23.5" x2="176.5" y1="119.4297" y2="119.4297"/><text fill="#000000" font-family="sans-serif" font-size="13" lengthAdjust="spacing" textLength="30" x="30.5" y="114.3638">login</text><polygon fill="#A80036" points="34.5,127.4297,24.5,131.4297,34.5,135.4297,30.5,131.4297" style="stroke:#A80036;stroke-width:1.0;"/><line style="stroke:#A80036;stroke-width:1.0;stroke-dasharray:2.0,2.0;" x1="28.5" x2="181.5" y1="131.4297" y2="131.4297"/><text fill="#000000" font-family="sans-serif" font-size="13" lengthAdjust="spacing" textLength="135" x="40.5" y="144.4966">302 login at keycloak</text><polygon fill="#A80036" points="266.5,173.6953,276.5,177.6953,266.5,181.6953,270.5,177.6953" style="stroke:#A80036;stroke-width:1.0;"/><line style="stroke:#A80036;stroke-width:1.0;" x1="23.5" x2="272.5" y1="177.6953" y2="177.6953"/><text fill="#000000" font-family="sans-serif" font-size="13" lengthAdjust="spacing" textLength="30" x="30.5" y="172.6294">login</text><polygon fill="#A80036" points="34.5,185.6953,24.5,189.6953,34.5,193.6953,30.5,189.6953" style="stroke:#A80036;stroke-width:1.0;"/><line style="stroke:#A80036;stroke-width:1.0;stroke-dasharray:2.0,2.0;" x1="28.5" x2="277.5" y1="189.6953" y2="189.6953"/><text fill="#000000" font-family="sans-serif" font-size="13" lengthAdjust="spacing" textLength="161" x="40.5" y="202.7622">302 continue at coldfront</text><polygon fill="#A80036" points="170.5,231.9609,180.5,235.9609,170.5,239.9609,174.5,235.9609" style="stroke:#A80036;stroke-width:1.0;"/><line style="stroke:#A80036;stroke-width:1.0;" x1="23.5" x2="176.5" y1="235.9609" y2="235.9609"/><text fill="#000000" font-family="sans-serif" font-size="13" lengthAdjust="spacing" textLength="108" x="30.5" y="230.895">manage projects</text><!--MD5=[02a3e4dae5abe6d4155197c21d7412be]
@startuml
skinparam responseMessageBelowArrow true

actor User
participant ColdFront
participant Keycloak

User -> ColdFront: login
ColdFront - -> User: 302 login at keycloak
User -> Keycloak: login
Keycloak - -> User: 302 continue at coldfront
User -> ColdFront: manage projects
@enduml

PlantUML version 1.2021.7(Sun May 23 12:40:07 UTC 2021)
(GPL source distribution)
Java Runtime: Java(TM) SE Runtime Environment
JVM: Java HotSpot(TM) 64-Bit Server VM
Default Encoding: UTF-8
Language: en
Country: US
--></g></svg>