<?xml version="1.0" encoding="UTF-8" standalone="no"?><svg xmlns="http://www.w3.org/2000/svg" xmlns:xlink="http://www.w3.org/1999/xlink" contentScriptType="application/ecmascript" contentStyleType="text/css" height="454px" preserveAspectRatio="none" style="width:852px;height:454px;background:#FFFFFF;" version="1.1" viewBox="0 0 852 454" width="852px" zoomAndPan="magnify"><defs><filter height="300%" id="f1sk9srdiw2dnr" width="300%" x="-1" y="-1"><feGaussianBlur result="blurOut" stdDeviation="2.0"/><feColorMatrix in="blurOut" result="blurOut2" type="matrix" values="0 0 0 0 0 0 0 0 0 0 0 0 0 0 0 0 0 0 .4 0"/><feOffset dx="4.0" dy="4.0" in="blurOut2" result="blurOut3"/><feBlend in="SourceGraphic" in2="blurOut3" mode="normal"/></filter></defs><g><line style="stroke:#A80036;stroke-width:1.0;stroke-dasharray:5.0,5.0;" x1="20" x2="20" y1="88.2969" y2="370.4922"/><line style="stroke:#A80036;stroke-width:1.0;stroke-dasharray:5.0,5.0;" x1="71" x2="71" y1="88.2969" y2="370.4922"/><line style="stroke:#A80036;stroke-width:1.0;stroke-dasharray:5.0,5.0;" x1="289.5" x2="289.5" y1="88.2969" y2="370.4922"/><line style="stroke:#A80036;stroke-width:1.0;stroke-dasharray:5.0,5.0;" x1="575" x2="575" y1="88.2969" y2="370.4922"/><line style="stroke:#A80036;stroke-width:1.0;stroke-dasharray:5.0,5.0;" x1="654" x2="654" y1="88.2969" y2="370.4922"/><line style="stroke:#A80036;stroke-width:1.0;stroke-dasharray:5.0,5.0;" x1="723" x2="723" y1="88.2969" y2="370.4922"/><line style="stroke:#A80036;stroke-width:1.0;stroke-dasharray:5.0,5.0;" x1="804" x2="804" y1="88.2969" y2="370.4922"/><text fill="#000000" font-family="sans-serif" font-size="14" lengthAdjust="spacing" textLength="13" x="10.5" y="84.9951">PI</text><ellipse cx="20" cy="15" fill="#FEFECE" filter="url(#f1sk9srdiw2dnr)" rx="8" ry="8" style="stroke:#A80036;stroke-width:2.0;"/><path d="M20,23 L20,50 M7,31 L33,31 M20,50 L7,65 M20,50 L33,65 " fill="none" filter="url(#f1sk9srdiw2dnr)" style="stroke:#A80036;stroke-width:2.0;"/><text fill="#000000" font-family="sans-serif" font-size="14" lengthAdjust="spacing" textLength="13" x="10.5" y="382.4873">PI</text><ellipse cx="20" cy="395.7891" fill="#FEFECE" filter="url(#f1sk9srdiw2dnr)" rx="8" ry="8" style="stroke:#A80036;stroke-width:2.0;"/><path d="M20,403.7891 L20,430.7891 M7,411.7891 L33,411.7891 M20,430.7891 L7,445.7891 M20,430.7891 L33,445.7891 " fill="none" filter="url(#f1sk9srdiw2dnr)" style="stroke:#A80036;stroke-width:2.0;"/><text fill="#000000" font-family="sans-serif" font-size="14" lengthAdjust="spacing" textLength="46" x="45" y="84.9951">Admin</text><ellipse cx="71" cy="15" fill="#FEFECE" filter="url(#f1sk9srdiw2dnr)" rx="8" ry="8" style="stroke:#A80036;stroke-width:2.0;"/><path d="M71,23 L71,50 M58,31 L84,31 M71,50 L58,65 M71,50 L84,65 " fill="none" filter="url(#f1sk9srdiw2dnr)" style="stroke:#A80036;stroke-width:2.0;"/><text fill="#000000" font-family="sans-serif" font-size="14" lengthAdjust="spacing" textLength="46" x="45" y="382.4873">Admin</text><ellipse cx="71" cy="395.7891" fill="#FEFECE" filter="url(#f1sk9srdiw2dnr)" rx="8" ry="8" style="stroke:#A80036;stroke-width:2.0;"/><path d="M71,403.7891 L71,430.7891 M58,411.7891 L84,411.7891 M71,430.7891 L58,445.7891 M71,430.7891 L84,445.7891 " fill="none" filter="url(#f1sk9srdiw2dnr)" style="stroke:#A80036;stroke-width:2.0;"/><rect fill="#FEFECE" filter="url(#f1sk9srdiw2dnr)" height="30.2969" style="stroke:#A80036;stroke-width:1.5;" width="85" x="245.5" y="53"/><text fill="#000000" font-family="sans-serif" font-size="14" lengthAdjust="spacing" textLength="71" x="252.5" y="72.9951">ColdFront</text><rect fill="#FEFECE" filter="url(#f1sk9srdiw2dnr)" height="30.2969" style="stroke:#A80036;stroke-width:1.5;" width="85" x="245.5" y="369.4922"/><text fill="#000000" font-family="sans-serif" font-size="14" lengthAdjust="spacing" textLength="71" x="252.5" y="389.4873">ColdFront</text><rect fill="#FEFECE" filter="url(#f1sk9srdiw2dnr)" height="30.2969" style="stroke:#A80036;stroke-width:1.5;" width="82" x="532" y="53"/><text fill="#000000" font-family="sans-serif" font-size="14" lengthAdjust="spacing" textLength="68" x="539" y="72.9951">Keystone</text><rect fill="#FEFECE" filter="url(#f1sk9srdiw2dnr)" height="30.2969" style="stroke:#A80036;stroke-width:1.5;" width="82" x="532" y="369.4922"/><text fill="#000000" font-family="sans-serif" font-size="14" lengthAdjust="spacing" textLength="68" x="539" y="389.4873">Keystone</text><rect fill="#FEFECE" filter="url(#f1sk9srdiw2dnr)" height="30.2969" style="stroke:#A80036;stroke-width:1.5;" width="49" x="628" y="53"/><text fill="#000000" font-family="sans-serif" font-size="14" lengthAdjust="spacing" textLength="35" x="635" y="72.9951">Nova</text><rect fill="#FEFECE" filter="url(#f1sk9srdiw2dnr)" height="30.2969" style="stroke:#A80036;stroke-width:1.5;" width="49" x="628" y="369.4922"/><text fill="#000000" font-family="sans-serif" font-size="14" lengthAdjust="spacing" textLength="35" x="635" y="389.4873">Nova</text><rect fill="#FEFECE" filter="url(#f1sk9srdiw2dnr)" height="30.2969" style="stroke:#A80036;stroke-width:1.5;" width="61" x="691" y="53"/><text fill="#000000" font-family="sans-serif" font-size="14" lengthAdjust="spacing" textLength="47" x="698" y="72.9951">Cinder</text><rect fill="#FEFECE" filter="url(#f1sk9srdiw2dnr)" height="30.2969" style="stroke:#A80036;stroke-width:1.5;" width="61" x="691" y="369.4922"/><text fill="#000000" font-family="sans-serif" font-size="14" lengthAdjust="spacing" textLength="47" x="698" y="389.4873">Cinder</text><rect fill="#FEFECE" filter="url(#f1sk9srdiw2dnr)" height="30.2969" style="stroke:#A80036;stroke-width:1.5;" width="72" x="766" y="53"/><text fill="#000000" font-family="sans-serif" font-size="14" lengthAdjust="spacing" textLength="58" x="773" y="72.9951">Neutron</text><rect fill="#FEFECE" filter="url(#f1sk9srdiw2dnr)" height="30.2969" style="stroke:#A80036;stroke-width:1.5;" width="72" x="766" y="369.4922"/><text fill="#000000" font-family="sans-serif" font-size="14" lengthAdjust="spacing" textLength="58" x="773" y="389.4873">Neutron</text><polygon fill="#A80036" points="278,115.4297,288,119.4297,278,123.4297,282,119.4297" style="stroke:#A80036;stroke-width:1.0;"/><line style="stroke:#A80036;stroke-width:1.0;" x1="20" x2="284" y1="119.4297" y2="119.4297"/><text fill="#000000" font-family="sans-serif" font-size="13" lengthAdjust="spacing" textLength="169" x="27" y="114.3638">1 new Resource Allocation</text><polygon fill="#A80036" points="278,144.5625,288,148.5625,278,152.5625,282,148.5625" style="stroke:#A80036;stroke-width:1.0;"/><line style="stroke:#A80036;stroke-width:1.0;" x1="71" x2="284" y1="148.5625" y2="148.5625"/><text fill="#000000" font-family="sans-serif" font-size="13" lengthAdjust="spacing" textLength="195" x="78" y="143.4966">2 approve Resource Allocation</text><polygon fill="#A80036" points="563,173.6953,573,177.6953,563,181.6953,567,177.6953" style="stroke:#A80036;stroke-width:1.0;"/><line style="stroke:#A80036;stroke-width:1.0;" x1="290" x2="569" y1="177.6953" y2="177.6953"/><text fill="#000000" font-family="sans-serif" font-size="13" lengthAdjust="spacing" textLength="134" x="297" y="172.6294">3 Create new project</text><polygon fill="#A80036" points="642.5,202.8281,652.5,206.8281,642.5,210.8281,646.5,206.8281" style="stroke:#A80036;stroke-width:1.0;"/><line style="stroke:#A80036;stroke-width:1.0;" x1="290" x2="648.5" y1="206.8281" y2="206.8281"/><text fill="#000000" font-family="sans-serif" font-size="13" lengthAdjust="spacing" textLength="328" x="297" y="201.7622">4 Set quota based on resource allocation attributes</text><polygon fill="#A80036" points="711.5,231.9609,721.5,235.9609,711.5,239.9609,715.5,235.9609" style="stroke:#A80036;stroke-width:1.0;"/><line style="stroke:#A80036;stroke-width:1.0;" x1="290" x2="717.5" y1="235.9609" y2="235.9609"/><text fill="#000000" font-family="sans-serif" font-size="13" lengthAdjust="spacing" textLength="328" x="297" y="230.895">5 Set quota based on resource allocation attributes</text><polygon fill="#A80036" points="792,261.0938,802,265.0938,792,269.0938,796,265.0938" style="stroke:#A80036;stroke-width:1.0;"/><line style="stroke:#A80036;stroke-width:1.0;" x1="290" x2="798" y1="265.0938" y2="265.0938"/><text fill="#000000" font-family="sans-serif" font-size="13" lengthAdjust="spacing" textLength="328" x="297" y="260.0278">6 Set quota based on resource allocation attributes</text><polygon fill="#A80036" points="792,290.2266,802,294.2266,792,298.2266,796,294.2266" style="stroke:#A80036;stroke-width:1.0;"/><line style="stroke:#A80036;stroke-width:1.0;" x1="290" x2="798" y1="294.2266" y2="294.2266"/><text fill="#000000" font-family="sans-serif" font-size="13" lengthAdjust="spacing" textLength="300" x="297" y="289.1606">7 Create default networking objects, if enabled</text><polygon fill="#A80036" points="563,319.3594,573,323.3594,563,327.3594,567,323.3594" style="stroke:#A80036;stroke-width:1.0;"/><line style="stroke:#A80036;stroke-width:1.0;" x1="290" x2="569" y1="323.3594" y2="323.3594"/><text fill="#000000" font-family="sans-serif" font-size="13" lengthAdjust="spacing" textLength="261" x="297" y="318.2935">8 Check if user exists, create if it doesn't</text><polygon fill="#A80036" points="563,348.4922,573,352.4922,563,356.4922,567,352.4922" style="stroke:#A80036;stroke-width:1.0;"/><line style="stroke:#A80036;stroke-width:1.0;" x1="290" x2="569" y1="352.4922" y2="352.4922"/><text fill="#000000" font-family="sans-serif" font-size="13" lengthAdjust="spacing" textLength="134" x="297" y="347.4263">9 Add user to project</text><!--MD5=[542969c6bea189d55ccfc4ca509d9a53]
@startuml
skinparam responseMessageBelowArrow true

actor PI
actor Admin
participant ColdFront
participant Keystone
participant Nova
participant Cinder
participant Neutron

PI -> ColdFront: 1 new Resource Allocation
Admin -> ColdFront: 2 approve Resource Allocation
ColdFront -> Keystone: 3 Create new project
ColdFront -> Nova: 4 Set quota based on resource allocation attributes
ColdFront -> Cinder: 5 Set quota based on resource allocation attributes
ColdFront -> Neutron: 6 Set quota based on resource allocation attributes
ColdFront -> Neutron: 7 Create default networking objects, if enabled
ColdFront -> Keystone: 8 Check if user exists, create if it doesn't
ColdFront -> Keystone: 9 Add user to project
@enduml

PlantUML version 1.2021.7(Sun May 23 12:40:07 UTC 2021)
(GPL source distribution)
Java Runtime: Java(TM) SE Runtime Environment
JVM: Java HotSpot(TM) 64-Bit Server VM
Default Encoding: UTF-8
Language: en
Country: US
--></g></svg>